<svg width="166" height="171" viewBox="0 0 166 171" fill="none" xmlns="http://www.w3.org/2000/svg">
<path d="M25.7103 152.585C25.7103 133.108 36.3661 103.907 58.9562 101.984C68.3878 101.181 82.4404 101.009 87.8111 110.557C94.0718 121.687 88.1759 135.647 97.1158 145.58C109.069 158.861 137.13 178.361 154.721 164.921C172.062 151.672 161.487 128.625 150.957 114.321C133.87 91.1081 111.023 123.755 100.148 137.948C97.1568 141.852 93.5122 149.4 88.6475 151.748C79.5288 156.151 78.4455 135.947 78.2974 132.512C77.5268 114.634 80.101 89.8415 94.8158 77.4156C108.847 65.5669 127.138 62.7945 144.476 58.9109C158.705 55.7234 168.548 51.864 157.858 36.2242C140.449 10.7566 117.245 5.22174 89.693 16.4649C64.9271 26.5711 44.1395 44.0388 16.5102 30.3696C11.2799 27.7819 -0.994902 19.7652 3.12824 11.4466C10.9993 -4.43369 46.1368 3.2805 58.1199 6.63746C86.7563 14.6597 84.3698 43.2186 75.9974 66.3337C73.9944 71.8636 63.6488 87.2815 68.1563 94.2477C74.1357 103.488 93.4136 106.053 102.866 109.302" stroke="black" stroke-width="3" stroke-linecap="round"/>
</svg>
